<?xml version="1.0" encoding="UTF-8" standalone="no"?>
<svg
   width="2690.6013"
   height="500"
   viewBox="0 0 2690.6013 500"
   fill="none"
   version="1.1"
   id="svg53"
   sodipodi:docname="Vendia_logo_500.svg"
   inkscape:version="1.1.1 (3bf5ae0d25, 2021-09-20)"
   xmlns:inkscape="http://www.inkscape.org/namespaces/inkscape"
   xmlns:sodipodi="http://sodipodi.sourceforge.net/DTD/sodipodi-0.dtd"
   xmlns="http://www.w3.org/2000/svg"
   xmlns:svg="http://www.w3.org/2000/svg">
  <sodipodi:namedview
     id="namedview55"
     pagecolor="#ffffff"
     bordercolor="#666666"
     borderopacity="1.0"
     inkscape:pageshadow="2"
     inkscape:pageopacity="0.0"
     inkscape:pagecheckerboard="0"
     showgrid="false"
     fit-margin-top="0"
     fit-margin-left="0"
     fit-margin-right="0"
     fit-margin-bottom="0"
     inkscape:zoom="0.42109546"
     inkscape:cx="1345.3007"
     inkscape:cy="250.53702"
     inkscape:window-width="1920"
     inkscape:window-height="1001"
     inkscape:window-x="-7"
     inkscape:window-y="-7"
     inkscape:window-maximized="1"
     inkscape:current-layer="svg53" />
  <g
     id="g64"
     transform="matrix(17.241365,0,0,17.241365,0,1.923154e-6)"
     style="stroke-width:0.058">
    <path
       fill-rule="evenodd"
       clip-rule="evenodd"
       d="M 0,0.743487 V 3.79423 C 0,4.10861 0.197919,4.38894 0.494167,4.49417 L 10.5805,8.07676 0.475126,12.0017 c -0.285656,0.111 -0.47385424,0.386 -0.47385424,0.6924 v 3.4627 c 0,0.3053 0.18682124,0.5795 0.47094724,0.6913 L 10.8621,20.9339 0.486659,24.7453 C 0.194306,24.8527 0,25.131 0,25.4425 v 2.814 c 0,0.5236 0.527301,0.8829 1.01462,0.6913 l 15.11298,-5.9432 15.113,5.9432 c 0.4873,0.1916 1.0146,-0.1677 1.0146,-0.6913 v -2.814 c 0,-0.3115 -0.1943,-0.5898 -0.4867,-0.6972 L 21.3931,20.9339 31.783,16.8481 c 0.2841,-0.1118 0.4709,-0.386 0.4709,-0.6913 v -3.4627 c 0,-0.3064 -0.1882,-0.5814 -0.4738,-0.6924 L 21.6747,8.07676 31.761,4.49417 C 32.0573,4.38894 32.2552,4.10861 32.2552,3.79423 V 0.743487 c 0,-0.522312 -0.5248,-0.881496 -1.0117,-0.6923895 L 16.1276,5.92221 1.01171,0.0510975 C 0.524831,-0.138009 0,0.221175 0,0.743487 Z M 16.1276,10.0471 5.67465,13.7599 c -0.65514,0.2327 -0.66011,1.1574 -0.0075,1.3972 l 10.46045,3.8426 10.4605,-3.8426 c 0.6526,-0.2398 0.6476,-1.1645 -0.0076,-1.3972 z"
       fill="url(#paint0_linear_322_117176)"
       id="path2"
       style="fill:url(#paint0_linear_322_117176);stroke-width:0.00336401" />
    <path
       d="M 51.4207,28.3798 40.8606,0 h 4.2862 l 8.6552,23.2188 h 0.1587 L 62.5762,0 h 4.1275 L 56.1832,28.3798 Z"
       fill="url(#paint1_linear_322_117176)"
       id="path4"
       style="fill:url(#paint1_linear_322_117176);stroke-width:0.00336401" />
    <path
       d="m 75.4056,28.4471 c -1.7727,0 -3.3735,-0.3969 -4.8022,-1.1906 -1.4023,-0.8202 -2.5268,-1.9844 -3.3734,-3.4925 -0.8467,-1.5081 -1.27,-3.3338 -1.27,-5.4769 0,-2.0902 0.4233,-3.8894 1.27,-5.3975 0.8466,-1.5346 1.9446,-2.712 3.294,-3.53216 1.3494,-0.84666 2.7781,-1.26999 4.2862,-1.26999 1.6934,0 3.1221,0.38364 4.2863,1.15093 1.1906,0.76732 2.0902,1.83882 2.6987,3.21472 0.6086,1.3758 0.9128,2.9765 0.9128,4.8021 0,0.3704 -0.0264,0.7541 -0.0793,1.151 -0.0265,0.3704 -0.0662,0.6747 -0.1191,0.9128 H 69.0953 l -0.0397,-2.7781 h 10.1599 c 0,-1.6934 -0.3704,-3.0031 -1.1112,-3.9291 -0.7144,-0.926 -1.7859,-1.389 -3.2147,-1.389 -0.8466,0 -1.6669,0.2381 -2.4606,0.7143 -0.7937,0.4763 -1.4552,1.2436 -1.9844,2.3019 -0.5027,1.0319 -0.754,2.3812 -0.754,4.0481 0,1.614 0.291,2.9369 0.8731,3.9688 0.5821,1.0318 1.3361,1.7991 2.2622,2.3018 0.9525,0.5027 1.9843,0.7541 3.0956,0.7541 0.8731,0 1.6801,-0.1323 2.4209,-0.3969 0.7673,-0.2646 1.5081,-0.6218 2.2225,-1.0715 l 1.3891,2.5399 c -0.8996,0.5821 -1.905,1.0716 -3.0163,1.4685 -1.0848,0.3969 -2.2622,0.5953 -3.5321,0.5953 z"
       fill="url(#paint2_linear_322_117176)"
       id="path6"
       style="fill:url(#paint2_linear_322_117176);stroke-width:0.00336401" />
    <path
       d="M 87.2305,28.3798 V 8.97265 h 3.2941 l 0.3175,2.69875 h 0.119 c 0.8996,-0.8731 1.8653,-1.614 2.8972,-2.2225 1.0319,-0.635 2.2093,-0.9525 3.5322,-0.9525 2.0637,0 3.5715,0.66145 4.5245,1.9844 0.952,1.3229 1.429,3.2146 1.429,5.6753 V 28.3798 H 99.3352 V 16.672 c 0,-1.6933 -0.2646,-2.8972 -0.7938,-3.6116 -0.5027,-0.7408 -1.3361,-1.1112 -2.5003,-1.1112 -0.926,0 -1.7462,0.2249 -2.4606,0.6747 -0.6879,0.4498 -1.4684,1.1112 -2.3416,1.9844 v 13.7715 z"
       fill="url(#paint3_linear_322_117176)"
       id="path8"
       style="fill:url(#paint3_linear_322_117176);stroke-width:0.00336401" />
    <path
       d="m 115.93,28.3771 c -2.408,0 -4.339,-0.8864 -5.794,-2.6591 -1.456,-1.7992 -2.183,-4.2995 -2.183,-7.5009 0,-2.0902 0.383,-3.8894 1.151,-5.3975 0.793,-1.5346 1.825,-2.712 3.095,-3.53217 1.27,-0.84666 2.62,-1.26999 4.048,-1.26999 1.138,0 2.104,0.19843 2.898,0.59531 0.793,0.37041 1.574,0.89958 2.341,1.58745 L 121.327,6.98557 V 0.0575984 h 4.009 V 28.3771 h -3.294 l -0.318,-2.6591 h -0.119 c -0.714,0.7144 -1.561,1.3361 -2.54,1.8653 -0.979,0.5292 -2.024,0.7938 -3.135,0.7938 z m 0.952,-3.3338 c 0.821,0 1.588,-0.1852 2.302,-0.5556 0.741,-0.3969 1.455,-1.0054 2.143,-1.8256 v -9.525 c -0.714,-0.6614 -1.428,-1.1245 -2.143,-1.3891 -0.688,-0.2645 -1.402,-0.3968 -2.143,-0.3968 -0.926,0 -1.759,0.2778 -2.5,0.8334 -0.741,0.5292 -1.336,1.3097 -1.786,2.3416 -0.45,1.0318 -0.675,2.2489 -0.675,3.6512 0,2.196 0.41,3.8894 1.231,5.08 0.846,1.1906 2.037,1.7859 3.571,1.7859 z"
       fill="url(#paint4_linear_322_117176)"
       id="path10"
       style="fill:url(#paint4_linear_322_117176);stroke-width:0.00336401" />
    <path
       d="M 131.414,28.3798 V 8.97265 h 4.008 V 28.3798 Z m 2.024,-23.05839 c -0.688,0 -1.27,-0.22489 -1.746,-0.67468 -0.477,-0.47625 -0.715,-1.05833 -0.715,-1.74624 0,-0.68792 0.238,-1.25677 0.715,-1.70656 0.476,-0.449792 1.058,-0.674686 1.746,-0.674686 0.714,0 1.296,0.224894 1.746,0.674686 0.476,0.44979 0.714,1.01864 0.714,1.70656 0,0.68791 -0.238,1.26999 -0.714,1.74624 -0.45,0.44979 -1.032,0.67468 -1.746,0.67468 z"
       fill="url(#paint5_linear_322_117176)"
       id="path12"
       style="fill:url(#paint5_linear_322_117176);stroke-width:0.00336401" />
    <path
       d="m 146.133,28.4471 c -1.111,0 -2.103,-0.2249 -2.976,-0.6747 -0.847,-0.4762 -1.522,-1.1245 -2.025,-1.9447 -0.476,-0.8466 -0.714,-1.8388 -0.714,-2.9765 0,-2.0902 0.926,-3.7042 2.778,-4.8419 1.852,-1.1377 4.802,-1.9315 8.851,-2.3813 0,-0.7408 -0.12,-1.4419 -0.358,-2.1034 -0.211,-0.6614 -0.595,-1.1906 -1.151,-1.5875 -0.529,-0.3969 -1.27,-0.5953 -2.222,-0.5953 -1.032,0 -2.024,0.1984 -2.977,0.5953 -0.926,0.3969 -1.799,0.8599 -2.619,1.3891 l -1.508,-2.6988 c 0.661,-0.4233 1.402,-0.82017 2.222,-1.19058 0.821,-0.39687 1.694,-0.71437 2.62,-0.9525 0.952,-0.26458 1.944,-0.39687 2.976,-0.39687 1.588,0 2.897,0.33073 3.929,0.99218 1.059,0.66146 1.839,1.60077 2.342,2.81777 0.503,1.2171 0.754,2.6855 0.754,4.4053 v 12.1444 h -3.294 l -0.318,-2.6988 h -0.119 c -0.873,0.7409 -1.825,1.3759 -2.857,1.905 -1.032,0.5292 -2.143,0.7938 -3.334,0.7938 z m 1.23,-3.175 c 0.847,0 1.641,-0.1984 2.382,-0.5953 0.74,-0.3969 1.508,-0.9657 2.302,-1.7066 V 18.168 c -1.932,0.2382 -3.467,0.5557 -4.604,0.9525 -1.111,0.3969 -1.918,0.8864 -2.421,1.4685 -0.476,0.5821 -0.715,1.2303 -0.715,1.9447 0,0.9525 0.292,1.6536 0.874,2.1034 0.582,0.4233 1.309,0.635 2.182,0.635 z"
       fill="url(#paint6_linear_322_117176)"
       id="path14"
       style="fill:url(#paint6_linear_322_117176);stroke-width:0.00336401" />
  </g>
  <defs
     id="defs51">
    <linearGradient
       id="paint0_linear_322_117176"
       x1="5.7704201"
       y1="-8.8035698"
       x2="38.02"
       y2="-4.2736902"
       gradientUnits="userSpaceOnUse">
      <stop
         stop-color="#6304FF"
         id="stop16" />
      <stop
         offset="1"
         stop-color="#23ADF3"
         id="stop18" />
    </linearGradient>
    <linearGradient
       id="paint1_linear_322_117176"
       x1="156.05499"
       y1="23.960899"
       x2="43.1759"
       y2="-1.06791"
       gradientUnits="userSpaceOnUse">
      <stop
         stop-color="#6304FF"
         id="stop21" />
      <stop
         offset="1"
         stop-color="#23ADF3"
         id="stop23" />
    </linearGradient>
    <linearGradient
       id="paint2_linear_322_117176"
       x1="156.05499"
       y1="23.960899"
       x2="43.1759"
       y2="-1.06791"
       gradientUnits="userSpaceOnUse">
      <stop
         stop-color="#6304FF"
         id="stop26" />
      <stop
         offset="1"
         stop-color="#23ADF3"
         id="stop28" />
    </linearGradient>
    <linearGradient
       id="paint3_linear_322_117176"
       x1="156.05499"
       y1="23.960899"
       x2="43.1759"
       y2="-1.06791"
       gradientUnits="userSpaceOnUse">
      <stop
         stop-color="#6304FF"
         id="stop31" />
      <stop
         offset="1"
         stop-color="#23ADF3"
         id="stop33" />
    </linearGradient>
    <linearGradient
       id="paint4_linear_322_117176"
       x1="156.05499"
       y1="23.960899"
       x2="43.1759"
       y2="-1.06791"
       gradientUnits="userSpaceOnUse">
      <stop
         stop-color="#6304FF"
         id="stop36" />
      <stop
         offset="1"
         stop-color="#23ADF3"
         id="stop38" />
    </linearGradient>
    <linearGradient
       id="paint5_linear_322_117176"
       x1="156.05499"
       y1="23.960899"
       x2="43.1759"
       y2="-1.06791"
       gradientUnits="userSpaceOnUse">
      <stop
         stop-color="#6304FF"
         id="stop41" />
      <stop
         offset="1"
         stop-color="#23ADF3"
         id="stop43" />
    </linearGradient>
    <linearGradient
       id="paint6_linear_322_117176"
       x1="156.05499"
       y1="23.960899"
       x2="43.1759"
       y2="-1.06791"
       gradientUnits="userSpaceOnUse">
      <stop
         stop-color="#6304FF"
         id="stop46" />
      <stop
         offset="1"
         stop-color="#23ADF3"
         id="stop48" />
    </linearGradient>
  </defs>
</svg>
